<svg width="30" height="30" viewBox="0 0 30 30" fill="none" xmlns="http://www.w3.org/2000/svg">
<path d="M3.89627 15.9935C5.23096 15.9935 6.31187 14.6554 6.31187 13.0161C6.31187 12.3847 6.14738 11.7997 5.87481 11.3131L9.93997 6.28514C10.3253 6.60952 10.7953 6.80068 11.2982 6.80068C11.9279 6.80068 12.4966 6.49367 12.9289 6.00709L16.5335 9.30307C16.3784 9.69697 16.2845 10.1314 16.2845 10.5948C16.2845 12.2399 17.3701 13.5722 18.7001 13.5722C20.0347 13.5722 21.1157 12.2341 21.1157 10.5948C21.1157 9.92288 20.9277 9.31466 20.6269 8.8165L25.4487 2.27666L25.1996 4.48943C25.1667 4.79644 25.3359 5.08028 25.585 5.12083C25.6085 5.12662 25.6273 5.12662 25.6508 5.12662C25.8717 5.12662 26.0691 4.92388 26.1019 4.64583L26.5578 0.637362C26.5578 0.625776 26.5531 0.614191 26.5531 0.596814C26.5578 0.538888 26.5531 0.486754 26.539 0.434621L26.5249 0.359317C26.5078 0.306747 26.484 0.257866 26.4544 0.214503C26.445 0.197125 26.4403 0.173954 26.4262 0.162369C26.4215 0.156577 26.4168 0.156577 26.4121 0.150784C26.4121 0.150784 26.4121 0.144992 26.4074 0.144992C26.4027 0.144992 26.4027 0.139199 26.398 0.139199C26.3107 0.0462067 26.1985 -0.00335889 26.0832 0.000176937H26.0409L22.7887 0.562058C22.5396 0.602606 22.3658 0.886443 22.4034 1.19345C22.4363 1.50046 22.6665 1.71478 22.9156 1.66844L24.927 1.32089L19.9596 8.06346C19.593 7.78542 19.1653 7.61743 18.7048 7.61743C18.075 7.61743 17.5064 7.92444 17.0787 8.41102L13.4741 5.11503C13.6292 4.72693 13.7185 4.29249 13.7185 3.82908C13.7185 2.18398 12.6329 0.851687 11.3029 0.851687C9.97287 0.851687 8.88726 2.18978 8.88726 3.82908C8.88726 4.44888 9.04235 5.02235 9.30552 5.50314L5.23096 10.5369C4.85029 10.2241 4.38973 10.0387 3.90097 10.0387C2.56628 10.0387 1.48536 11.3768 1.48536 13.0161C1.48431 13.407 1.54592 13.7943 1.66665 14.1557C1.78738 14.5172 1.96485 14.8456 2.18887 15.1223C2.41289 15.399 2.67905 15.6183 2.97205 15.7679C3.26506 15.9174 3.57915 15.9941 3.89627 15.9935ZM18.7048 8.7354C19.5366 8.7354 20.2133 9.56953 20.2133 10.5948C20.2133 11.6201 19.5366 12.4542 18.7048 12.4542C17.8729 12.4542 17.1962 11.6201 17.1962 10.5948C17.1962 9.56953 17.8729 8.7354 18.7048 8.7354ZM11.2982 1.96386C12.13 1.96386 12.8067 2.798 12.8067 3.82329C12.8067 4.84857 12.13 5.68271 11.2982 5.68271C10.4663 5.68271 9.78959 4.84857 9.78959 3.82329C9.78959 2.798 10.4663 1.96386 11.2982 1.96386ZM3.89627 11.1567C4.7281 11.1567 5.40484 11.9908 5.40484 13.0161C5.40484 14.0414 4.7281 14.8755 3.89627 14.8755C3.06444 14.8755 2.38769 14.0414 2.38769 13.0161C2.38769 11.9908 3.06444 11.1567 3.89627 11.1567Z" fill="#1E292E"/>
<path d="M29.5465 28.8762H28.6912V10.1662C28.6912 9.23936 28.0802 8.48633 27.3283 8.48633H24.8939C24.1419 8.48633 23.531 9.23936 23.531 10.1662V28.8762H21.2893V18.5654C21.2893 17.6386 20.6783 16.8856 19.9264 16.8856H17.492C16.74 16.8856 16.1291 17.6386 16.1291 18.5654V28.8704H13.8874V14.0878C13.8874 13.1609 13.2764 12.4079 12.5245 12.4079H10.0901C9.33813 12.4079 8.72719 13.1609 8.72719 14.0878V28.8762H6.48547V23.6108C6.48547 22.684 5.87452 21.9309 5.12258 21.9309H2.67878C1.92684 21.9309 1.31589 22.684 1.31589 23.6108V28.8762H0.455863C0.33496 28.8762 0.21901 28.9354 0.133519 29.0408C0.0480282 29.1462 0 29.2891 0 29.4381C0 29.5871 0.0480282 29.7301 0.133519 29.8354C0.21901 29.9408 0.33496 30 0.455863 30H29.5418C29.6016 30.0004 29.661 29.9862 29.7164 29.9583C29.7718 29.9305 29.8223 29.8894 29.8648 29.8375C29.9074 29.7856 29.9412 29.7238 29.9644 29.6558C29.9876 29.5878 29.9997 29.5148 30 29.441C30.0003 29.3672 29.9888 29.2941 29.9662 29.2258C29.9436 29.1575 29.9102 29.0953 29.8681 29.0429C29.826 28.9904 29.7759 28.9487 29.7208 28.9201C29.6656 28.8915 29.6063 28.8766 29.5465 28.8762ZM2.22292 28.8762V23.6108C2.22292 23.3038 2.425 23.0489 2.67878 23.0489H5.11318C5.36226 23.0489 5.56904 23.298 5.56904 23.6108V28.8762H2.22292ZM9.62481 28.8762V14.0878C9.62481 13.7808 9.8269 13.5259 10.0807 13.5259H12.5151C12.7642 13.5259 12.9709 13.775 12.9709 14.0878V28.8762H9.62481ZM17.0314 28.8762V18.5654C17.0314 18.2584 17.2335 18.0036 17.4873 18.0036H19.9217C20.1707 18.0036 20.3775 18.2526 20.3775 18.5654V28.8704H17.0314V28.8762ZM24.4333 28.8762V10.1662C24.4333 9.85917 24.6354 9.6043 24.8892 9.6043H27.3236C27.5726 9.6043 27.7794 9.85338 27.7794 10.1662V28.8762H24.4333Z" fill="#1E292E"/>
</svg>
