<svg width="30" height="28" viewBox="0 0 30 28" fill="none" xmlns="http://www.w3.org/2000/svg">
<path d="M9.00121 23.0987C10.4856 23.0987 11.914 22.7453 13.191 22.0833L15.4933 25.9708C16.7018 28.1534 19.9901 28.5627 21.729 26.7635C23.5639 25.0557 23.1389 21.8258 20.9215 20.6345L16.9568 18.3654C18.0887 16.2374 18.3242 13.6956 17.5097 11.369C17.3707 10.822 16.5213 10.9247 16.5253 11.4953C18.3827 16.5966 14.5719 22.1546 9.00071 22.1158C4.70295 22.2027 0.912172 18.478 1.00117 14.2524C0.919172 8.88218 6.62584 4.97408 11.7306 6.8608C12.3485 7.07508 12.6865 6.16489 12.071 5.93685C6.33036 3.81472 -0.0922701 8.21133 0.00172445 14.2524C-0.0982698 19.0058 4.16499 23.197 9.00121 23.0987ZM15.3643 20.5072C15.7662 20.1099 16.1282 19.6754 16.4453 19.2097L20.4186 21.4837C22.0775 22.3748 22.3949 24.7913 21.022 26.0691C19.7221 27.4142 17.2602 27.1075 16.3573 25.4759L14.0474 21.5756C14.5195 21.2609 14.9604 20.9032 15.3643 20.5072Z" fill="#1E292E"/>
<path d="M11.3938 9.38263C11.9882 9.6549 12.4162 8.78747 11.8287 8.49751C9.34437 7.31751 6.36054 7.81389 4.40215 9.73304C0.320888 13.7385 3.28522 20.6798 9.00089 20.6376C14.1886 20.6936 17.3829 14.7484 14.3086 10.5626C13.9266 10.0402 13.1177 10.6049 13.4936 11.1313C14.2456 12.1717 14.5979 13.4406 14.4879 14.7123C14.378 15.984 13.8129 17.1762 12.8932 18.0771C10.7468 20.182 7.25499 20.1815 5.11011 18.0781C0.822359 13.7006 5.78757 6.83686 11.3938 9.38263Z" fill="#1E292E"/>
<path d="M8.67808 14.6278C8.72823 14.6695 8.78625 14.7011 8.84883 14.7208C8.91141 14.7405 8.97731 14.7478 9.04279 14.7424C9.10826 14.737 9.17201 14.719 9.23039 14.6894C9.28877 14.6598 9.34064 14.6191 9.38304 14.5698L13.6358 9.62817C14.3008 9.97366 15.2107 9.85227 15.7647 9.37408L18.569 11.3783C18.2605 12.2963 19.02 13.2856 20.0004 13.2694C21.0969 13.2974 21.8638 12.055 21.3254 11.1193L26.5001 5.67043V7.37187C26.5101 8.01667 27.489 8.01912 27.5 7.37187V4.4231C27.4953 4.29424 27.4411 4.17191 27.3483 4.08073C27.2556 3.98955 27.1311 3.93628 27 3.93164H24.0002C23.3442 3.94245 23.3417 4.90375 24.0002 4.91456H25.8486L20.5974 10.4445C20.1464 10.2381 19.5485 10.299 19.1525 10.5806L16.3576 8.58332C16.8946 7.33796 15.8807 5.86898 14.5007 5.89749C12.9188 5.84981 11.9234 7.76848 12.8708 8.99467L8.61908 13.9353C8.53351 14.0349 8.49166 14.1637 8.50272 14.2936C8.51379 14.4234 8.57686 14.5436 8.67808 14.6278ZM20.0004 11.3036C20.6574 11.3154 20.6574 12.2752 20.0004 12.2865C19.343 12.2752 19.3435 11.3149 20.0004 11.3036ZM14.5007 6.88041C15.2957 6.85583 15.7922 7.82401 15.3102 8.43588C14.7737 9.20354 13.4833 8.803 13.5003 7.86333C13.5003 7.32125 13.9493 6.88041 14.5002 6.88041H14.5007Z" fill="#1E292E"/>
<path d="M27.0002 0H8.50129C6.84689 0 5.50146 1.32301 5.50146 2.94877V4.88512C5.51046 5.53189 6.49491 5.52599 6.50141 4.88512V2.94877C6.50141 1.8651 7.39836 0.982922 8.50129 0.982922H27.0002C28.1032 0.982922 29.0001 1.8651 29.0001 2.94877V17.6926C29.0001 18.7768 28.1032 19.6584 27.0002 19.6584H21.9705C21.8379 19.6584 21.7107 19.7102 21.617 19.8024C21.5232 19.8946 21.4705 20.0196 21.4705 20.1499C21.4705 20.2803 21.5232 20.4053 21.617 20.4974C21.7107 20.5896 21.8379 20.6414 21.9705 20.6414H27.0002C28.6541 20.6414 30.0001 19.3188 30.0001 17.6926V2.94877C30.0001 1.32301 28.6541 0 27.0002 0Z" fill="#1E292E"/>
<path d="M22.0009 17.2011C21.3449 17.2114 21.3424 18.1732 22.0009 18.184H27.5006C28.1555 18.1742 28.159 17.2119 27.5006 17.2011H22.0009ZM27.5006 15.2353H24.5007C23.8443 15.2456 23.8428 16.2074 24.5007 16.2182H27.5006C28.1565 16.2084 28.1585 15.2461 27.5006 15.2353ZM12.0015 3.4402C12.6574 3.42988 12.6594 2.46858 12.0015 2.45728H8.0017C7.34574 2.46809 7.34324 3.42939 8.0017 3.4402H12.0015Z" fill="#1E292E"/>
</svg>
