<svg width="50" height="42" viewBox="0 0 50 42" fill="none" xmlns="http://www.w3.org/2000/svg">
<path d="M48.2187 7.20583L41.7408 1.43377C41.2334 0.972737 40.4342 0.639648 39.6673 0.639648H10.3437C10.057 0.639648 9.77756 0.691119 9.5055 0.764648C9.45918 0.764648 9.40182 0.79406 9.38785 0.79406C8.93638 0.960237 8.65624 1.08818 8.26285 1.42641C8.0305 1.63377 1.92388 7.07347 1.70403 7.29406C0.556971 8.36465 0.439324 10.1492 1.34374 11.3823C23.8011 41.8647 22.5761 40.333 23.1231 40.7205C24.2423 41.586 25.807 41.5558 26.8731 40.7352C27.4614 40.2941 25.8981 42.2882 48.6526 11.3823C49.6658 10.0301 49.3254 8.18671 48.2187 7.20583ZM40.5276 2.35288C40.7364 2.48524 47.2879 8.34406 47.3879 8.46318H34.704L40.5276 2.35288ZM38.7261 2.11024L32.932 8.19112L26.7849 2.11024H38.7261ZM31.1158 8.46318H18.8805L24.9981 2.41171L31.1158 8.46318ZM23.2114 2.11024L17.0643 8.19112L11.2702 2.11024H23.2114ZM2.76285 8.30877C2.90256 8.18377 9.31065 2.44994 9.47609 2.36024L15.2923 8.46318H2.61579C2.65991 8.41171 2.70403 8.35288 2.76285 8.30877ZM2.52756 10.5073C2.40256 10.3382 2.31432 10.147 2.26285 9.94847H16.5055L22.3952 37.4779L2.52756 10.5073ZM25.6305 39.7132C25.2452 39.9441 24.7334 39.9338 24.3805 39.7132L18.0055 9.94847H31.9908L25.6305 39.7132ZM47.4761 10.5073H47.4687L27.6084 37.4779L33.4981 9.94847H47.7408C47.6893 10.147 47.6011 10.3382 47.4761 10.5073Z" fill="#1E292E"/>
</svg>
