<svg width="50" height="50" viewBox="0 0 50 50" fill="none" xmlns="http://www.w3.org/2000/svg">
<g clip-path="url(#clip0_626_471)">
<mask id="mask0_626_471" style="mask-type:luminance" maskUnits="userSpaceOnUse" x="0" y="0" width="50" height="50">
<path d="M0 0.000144958H49.9999V50H0V0.000144958Z" fill="white"/>
<path fill-rule="evenodd" clip-rule="evenodd" d="M49.9999 0.000144958H0V50H49.9999V0.000144958ZM48.535 48.5352H1.46484V1.46499H48.535V48.5352Z" fill="white"/>
</mask>
<g mask="url(#mask0_626_471)">
<path fill-rule="evenodd" clip-rule="evenodd" d="M36.2905 49.1293C36.4815 49.267 36.727 49.3044 36.9504 49.23L48.6691 45.3237C48.9682 45.2241 49.1699 44.9442 49.1699 44.6289V26.9532C49.1699 26.7178 49.0567 26.4967 48.8657 26.359C48.6747 26.2214 48.4292 26.1839 48.2059 26.2583L36.4871 30.1646C36.1881 30.2643 35.9863 30.5442 35.9863 30.8594V48.5352C35.9863 48.7706 36.0995 48.9917 36.2905 49.1293ZM37.4512 47.519V31.3873L47.705 27.9694V44.101L37.4512 47.519Z" fill="#1E292E"/>
<path fill-rule="evenodd" clip-rule="evenodd" d="M37.147 49.1293C37.338 48.9917 37.4511 48.7706 37.4511 48.5352V30.8594C37.4511 30.5442 37.2494 30.2643 36.9503 30.1646L25.2316 26.2583C25.0083 26.1839 24.7627 26.2214 24.5717 26.359C24.3808 26.4967 24.2676 26.7178 24.2676 26.9532V44.6289C24.2676 44.9442 24.4693 45.2241 24.7684 45.3237L36.4871 49.23C36.7105 49.3044 36.956 49.267 37.147 49.1293ZM25.7324 44.101V27.9694L35.9863 31.3873V47.519L25.7324 44.101Z" fill="#1E292E"/>
<path fill-rule="evenodd" clip-rule="evenodd" d="M36.4871 31.5542C36.6374 31.6043 36.8 31.6043 36.9503 31.5542L48.669 27.648C48.9681 27.5483 49.1699 27.2684 49.1699 26.9531C49.1699 26.6379 48.9681 26.358 48.669 26.2583L36.9503 22.3521C36.8 22.3019 36.6374 22.3019 36.4871 22.3521L24.7684 26.2583C24.4693 26.358 24.2676 26.6379 24.2676 26.9531C24.2676 27.2684 24.4693 27.5483 24.7684 27.648L36.4871 31.5542ZM27.3161 26.9531L36.7187 23.8189L46.1213 26.9531L36.7187 30.0873L27.3161 26.9531Z" fill="#1E292E"/>
<path fill-rule="evenodd" clip-rule="evenodd" d="M12.853 49.1293C13.044 49.267 13.2895 49.3044 13.5129 49.23L25.2316 45.3237C25.5307 45.2241 25.7324 44.9442 25.7324 44.6289V26.9532C25.7324 26.7178 25.6192 26.4967 25.4282 26.359C25.2372 26.2214 24.9917 26.1839 24.7684 26.2583L13.0496 30.1646C12.7506 30.2643 12.5488 30.5442 12.5488 30.8594V48.5352C12.5488 48.7706 12.662 48.9917 12.853 49.1293ZM14.0137 47.519V31.3873L24.2675 27.9694V44.101L14.0137 47.519Z" fill="#1E292E"/>
<path fill-rule="evenodd" clip-rule="evenodd" d="M13.7095 49.1293C13.9005 48.9917 14.0136 48.7706 14.0136 48.5352V30.8594C14.0136 30.5442 13.8119 30.2643 13.5128 30.1646L1.79411 26.2583C1.57076 26.1839 1.32524 26.2214 1.13425 26.359C0.943253 26.4967 0.830078 26.7178 0.830078 26.9532V44.6289C0.830078 44.9442 1.03181 45.2241 1.33089 45.3237L13.0496 49.23C13.273 49.3044 13.5185 49.267 13.7095 49.1293ZM2.29492 44.101V27.9694L12.5488 31.3873V47.519L2.29492 44.101Z" fill="#1E292E"/>
<path fill-rule="evenodd" clip-rule="evenodd" d="M13.0496 31.5542C13.1999 31.6043 13.3625 31.6043 13.5128 31.5542L25.2315 27.648C25.5306 27.5483 25.7324 27.2684 25.7324 26.9531C25.7324 26.6379 25.5306 26.358 25.2315 26.2583L13.5128 22.3521C13.3625 22.3019 13.1999 22.3019 13.0496 22.3521L1.33089 26.2583C1.03181 26.358 0.830078 26.6379 0.830078 26.9531C0.830078 27.2684 1.03181 27.5483 1.33089 27.648L13.0496 31.5542ZM3.87862 26.9531L13.2812 23.8189L22.6838 26.9531L13.2812 30.0873L3.87862 26.9531Z" fill="#1E292E"/>
<path fill-rule="evenodd" clip-rule="evenodd" d="M24.5717 27.5473C24.7627 27.685 25.0083 27.7224 25.2316 27.648L36.9503 23.7417C37.2494 23.642 37.4511 23.3621 37.4511 23.0469V5.37115C37.4511 5.13572 37.338 4.91464 37.147 4.77698C36.956 4.63932 36.7105 4.60187 36.4871 4.67632L24.7684 8.58255C24.4693 8.68225 24.2676 8.96213 24.2676 9.27739V26.9531C24.2676 27.1886 24.3808 27.4096 24.5717 27.5473ZM25.7324 25.9369V9.80529L35.9863 6.38733V22.519L25.7324 25.9369Z" fill="#1E292E"/>
<path fill-rule="evenodd" clip-rule="evenodd" d="M25.4282 27.5473C25.6192 27.4096 25.7324 27.1886 25.7324 26.9531V9.27739C25.7324 8.96213 25.5307 8.68225 25.2316 8.58255L13.5129 4.67632C13.2895 4.60187 13.044 4.63932 12.853 4.77698C12.662 4.91464 12.5488 5.13572 12.5488 5.37115V23.0469C12.5488 23.3621 12.7506 23.642 13.0496 23.7417L24.7684 27.648C24.9917 27.7224 25.2372 27.685 25.4282 27.5473ZM14.0137 22.519V6.38733L24.2675 9.80529V25.9369L14.0137 22.519Z" fill="#1E292E"/>
<path fill-rule="evenodd" clip-rule="evenodd" d="M24.7684 9.97218C24.9187 10.0223 25.0812 10.0223 25.2316 9.97218L36.9503 6.06594C37.2494 5.96625 37.4511 5.68636 37.4511 5.37111C37.4511 5.05585 37.2494 4.77596 36.9503 4.67627L25.2316 0.770031C25.0812 0.719917 24.9187 0.719917 24.7684 0.770031L13.0496 4.67627C12.7506 4.77596 12.5488 5.05585 12.5488 5.37111C12.5488 5.68636 12.7506 5.96625 13.0496 6.06594L24.7684 9.97218ZM15.5974 5.37111L25 2.23691L34.4026 5.37111L25 8.5053L15.5974 5.37111Z" fill="#1E292E"/>
</g>
</g>
<defs>
<clipPath id="clip0_626_471">
<rect width="50" height="50" fill="white"/>
</clipPath>
</defs>
</svg>
