<svg width="43" height="43" viewBox="0 0 43 43" fill="none" xmlns="http://www.w3.org/2000/svg">
<path opacity="0.935" fill-rule="evenodd" clip-rule="evenodd" d="M13.1643 0.0499716C14.572 -0.177642 15.5142 0.372307 15.9909 1.69981C16.1964 2.9685 15.7181 3.86578 14.5559 4.39166C14.469 5.69288 14.44 6.99538 14.4689 8.29918C14.8168 8.29918 15.1647 8.29918 15.5126 8.29918C15.4981 7.16996 15.5126 6.04113 15.5561 4.91266C15.6285 4.8403 15.7011 4.76793 15.7735 4.69558C16.3266 4.68087 16.8774 4.63745 17.426 4.56533C18.1952 3.02727 19.3548 2.63652 20.9049 3.39307C22.1805 4.63768 22.1805 5.88231 20.9049 7.12692C19.3548 7.88347 18.1952 7.49272 17.426 5.95467C17.2309 5.87007 17.028 5.84112 16.8172 5.86783C16.8172 6.67828 16.8172 7.48873 16.8172 8.29918C17.5425 8.28476 18.2673 8.29918 18.9915 8.34259C19.0711 8.37507 19.1437 8.41849 19.2089 8.47284C19.337 10.0277 19.3805 11.5907 19.3394 13.1619C20.6153 13.1764 21.8909 13.1619 23.1661 13.1184C23.7837 11.716 24.8273 11.2529 26.2972 11.7291C27.4187 12.3626 27.81 13.3033 27.4713 14.5512C26.8001 15.9041 25.7419 16.3237 24.2968 15.8103C23.8002 15.4876 23.4233 15.0535 23.1661 14.5078C21.8909 14.4644 20.6153 14.4499 19.3394 14.4644C19.3805 16.0066 19.337 17.5406 19.2089 19.0666C19.1304 19.1708 19.029 19.2433 18.9045 19.2836C18.2093 19.3271 17.5136 19.3415 16.8172 19.3271C16.8172 20.1086 16.8172 20.8901 16.8172 21.6716C17.0222 21.6857 17.2251 21.6713 17.426 21.6282C18.0308 20.299 19.0455 19.8359 20.47 20.2388C21.7328 20.9229 22.1242 21.9505 21.6441 23.3214C21.047 24.3355 20.1627 24.7262 18.9915 24.4937C18.2147 24.2681 17.6929 23.776 17.426 23.0175C16.9041 22.9886 16.3823 22.9596 15.8605 22.9307C15.7808 22.8982 15.7083 22.8548 15.643 22.8004C15.5158 21.6512 15.4723 20.4934 15.5126 19.3271C15.1647 19.3271 14.8168 19.3271 14.4689 19.3271C14.4544 20.6009 14.4689 21.8745 14.5124 23.1477C15.6741 23.6726 16.167 24.5698 15.9909 25.8396C15.4745 27.2483 14.4743 27.7837 12.9904 27.446C11.6868 26.7843 11.2665 25.7568 11.7293 24.3634C12.0318 23.7718 12.4957 23.3666 13.1208 23.1477C13.1643 21.8745 13.1789 20.6009 13.1643 19.3271C12.8164 19.3271 12.4686 19.3271 12.1207 19.3271C12.1608 20.4645 12.1174 21.5933 11.9902 22.7136C11.9117 22.8179 11.8103 22.8903 11.6858 22.9307C11.1615 22.9454 10.6397 22.9888 10.1203 23.0609C9.43887 24.4412 8.36615 24.8609 6.90232 24.32C5.71767 23.4762 5.44227 22.3908 6.07609 21.0637C6.72976 20.2093 7.585 19.9054 8.64177 20.152C9.34929 20.4097 9.84208 20.8873 10.1203 21.5847C10.3452 21.6698 10.5772 21.6987 10.8161 21.6716C10.8161 20.8901 10.8161 20.1086 10.8161 19.3271C10.0907 19.3415 9.36599 19.3271 8.64177 19.2836C8.32189 19.0371 8.1769 18.7042 8.20691 18.2851C6.43847 18.2851 4.67003 18.2851 2.9016 18.2851C2.9016 22.5978 2.9016 26.9105 2.9016 31.2233C4.15487 31.6828 4.6622 32.5801 4.42361 33.9151C3.95782 35.1973 3.04461 35.7327 1.68398 35.5216C0.0599204 34.8559 -0.389437 33.7126 0.335913 32.0916C0.650179 31.6475 1.07055 31.358 1.59701 31.2233C1.58251 26.5921 1.59701 21.9609 1.6405 17.3299C1.74608 17.1954 1.87654 17.0941 2.03187 17.026C4.09001 16.9825 6.14836 16.968 8.20691 16.9825C8.20691 16.1431 8.20691 15.3038 8.20691 14.4644C6.93 14.4355 5.6544 14.4645 4.38013 14.5512C3.58518 16.0381 2.42555 16.4 0.901233 15.6366C-0.0359293 14.756 -0.22437 13.7285 0.335913 12.554C1.40921 11.3219 2.59784 11.2061 3.90178 12.2067C4.15438 12.4795 4.31384 12.7979 4.38013 13.1619C5.65572 13.1619 6.93131 13.1619 8.20691 13.1619C8.16821 11.6229 8.21169 10.0889 8.33737 8.55968C8.40981 8.48734 8.48235 8.41493 8.5548 8.34259C9.30798 8.29918 10.0618 8.28476 10.8161 8.29918C10.8161 7.48873 10.8161 6.67828 10.8161 5.86783C10.5841 5.86783 10.3523 5.86783 10.1203 5.86783C9.89191 6.77588 9.31207 7.31136 8.38085 7.47426C6.46777 7.50317 5.61254 6.56248 5.81517 4.65216C6.24288 3.44474 7.09811 2.90926 8.38085 3.04574C9.31207 3.20864 9.89191 3.74411 10.1203 4.65216C10.6719 4.63773 11.2227 4.6522 11.7728 4.69558C11.8524 4.72807 11.925 4.77149 11.9902 4.82583C12.1174 5.97503 12.1609 7.13282 12.1207 8.29918C12.4686 8.29918 12.8164 8.29918 13.1643 8.29918C13.1643 6.99667 13.1643 5.69416 13.1643 4.39166C11.8385 3.88675 11.3311 2.93158 11.6423 1.52614C11.9127 0.778385 12.4201 0.286324 13.1643 0.0499716ZM13.4252 1.35248C14.3233 1.27962 14.7437 1.68484 14.6863 2.56815C14.422 3.09806 14.0015 3.2862 13.4252 3.13257C12.6227 2.54018 12.6227 1.94682 13.4252 1.35248ZM7.77205 4.30482C8.74927 4.36803 9.08272 4.86008 8.77223 5.781C8.25039 6.35989 7.72856 6.35989 7.20673 5.781C6.91394 5.09362 7.10239 4.60156 7.77205 4.30482ZM19.3394 4.30482C20.0191 4.25266 20.425 4.55658 20.557 5.21658C20.49 5.78999 20.1711 6.12284 19.6003 6.21517C18.7269 5.98645 18.4805 5.46545 18.861 4.65216C19.0186 4.5239 19.178 4.40812 19.3394 4.30482ZM9.51149 9.51485C12.3526 9.51485 15.1937 9.51485 18.0348 9.51485C18.0348 12.3514 18.0348 15.188 18.0348 18.0246C15.1937 18.0246 12.3526 18.0246 9.51149 18.0246C9.51149 15.188 9.51149 12.3514 9.51149 9.51485ZM2.11885 12.8145C2.93119 12.887 3.26458 13.3212 3.11903 14.117C2.87898 14.6204 2.4876 14.8085 1.9449 14.6815C1.34361 14.3541 1.18416 13.8765 1.46655 13.2487C1.65527 13.047 1.87271 12.9022 2.11885 12.8145ZM25.1665 12.8145C25.8011 12.8546 26.1779 13.1875 26.2972 13.8131C26.0498 14.6602 25.528 14.8918 24.7317 14.5078C24.2084 13.7736 24.3534 13.2092 25.1665 12.8145ZM7.5981 21.4111C8.54453 21.2817 8.96487 21.6869 8.8592 22.6267C8.59811 23.1549 8.17777 23.343 7.5981 23.1912C7.11029 22.9066 6.95084 22.4869 7.11975 21.9321C7.23801 21.713 7.39746 21.5393 7.5981 21.4111ZM19.2524 21.4111C20.3482 21.3887 20.7106 21.8808 20.3395 22.8872C19.9743 23.2532 19.5538 23.3256 19.0784 23.1043C18.4727 22.4679 18.5307 21.9035 19.2524 21.4111ZM13.5992 24.3634C14.2697 24.3382 14.6465 24.6567 14.7298 25.3186C14.5699 26.1075 14.1061 26.3825 13.3383 26.1435C12.6071 25.431 12.6941 24.8377 13.5992 24.3634ZM1.85793 32.439C2.80436 32.3096 3.22472 32.7148 3.11903 33.6546C2.74787 34.2951 2.24054 34.4254 1.59701 34.0454C1.18781 33.4214 1.27478 32.8859 1.85793 32.439Z" fill="#1E292E"/>
<path opacity="0.94" fill-rule="evenodd" clip-rule="evenodd" d="M29.863 10.7305C33.8928 10.716 37.9225 10.7305 41.9521 10.774C42.3293 10.8902 42.6337 11.1073 42.8653 11.4252C43.0084 14.2565 43.0373 17.0931 42.9523 19.9349C42.7499 20.3624 42.4165 20.6374 41.9521 20.7598C40.5306 20.7743 39.1101 20.8177 37.6905 20.8901C36.9785 22.919 35.5435 24.0478 33.3853 24.2766C32.9726 24.2264 32.7551 23.9948 32.733 23.5819C32.9943 23.1174 33.2117 22.6253 33.3853 22.1058C33.494 21.6785 33.5375 21.2444 33.5158 20.8032C32.2689 20.8177 31.0222 20.8032 29.776 20.7598C29.3326 20.6354 29.0282 20.3604 28.8628 19.9349C28.7205 17.2761 28.6915 14.6133 28.7758 11.9462C28.8833 11.3039 29.2457 10.8986 29.863 10.7305ZM30.1239 12.033C33.98 12.0041 37.8359 12.033 41.6912 12.1199C41.8071 14.5512 41.8071 16.9826 41.6912 19.4139C40.0975 19.4862 38.503 19.5297 36.9077 19.5442C36.7192 19.6165 36.5888 19.7467 36.5163 19.9349C36.413 21.1502 35.8187 22.0186 34.7334 22.5399C34.7044 22.511 34.6754 22.482 34.6464 22.4531C34.8072 21.8256 34.8506 21.1889 34.7769 20.5427C34.7714 20.2019 34.67 19.898 34.4725 19.631C33.01 19.5315 31.546 19.4591 30.0804 19.4139C30.0087 16.9474 30.0232 14.4871 30.1239 12.033Z" fill="#1E292E"/>
<path opacity="0.922" fill-rule="evenodd" clip-rule="evenodd" d="M31.6023 12.9014C34.4725 12.8869 37.3426 12.9014 40.2125 12.9449C40.4618 13.0658 40.5777 13.2684 40.5604 13.5527C40.5777 13.837 40.4618 14.0396 40.2125 14.1605C37.3425 14.2184 34.4724 14.2184 31.6023 14.1605C31.0317 13.7418 31.0317 13.3221 31.6023 12.9014Z" fill="#1E292E"/>
<path opacity="0.926" fill-rule="evenodd" clip-rule="evenodd" d="M31.5156 15.159C34.4438 15.1445 37.3719 15.159 40.2998 15.2024C40.5515 15.455 40.624 15.7589 40.5173 16.1142C40.4025 16.2867 40.2431 16.388 40.0389 16.4181C37.2848 16.476 34.5307 16.476 31.7765 16.4181C31.1197 16.1153 31.0327 15.6956 31.5156 15.159Z" fill="#1E292E"/>
<path opacity="0.924" fill-rule="evenodd" clip-rule="evenodd" d="M31.6894 17.3299C34.5017 17.3154 37.3138 17.3299 40.1258 17.3733C40.5368 17.5807 40.6672 17.9136 40.5171 18.3719C40.4386 18.4762 40.3372 18.5486 40.2127 18.589C37.3137 18.6469 34.4145 18.6469 31.5155 18.589C31.0323 18.0854 31.0902 17.6658 31.6894 17.3299Z" fill="#1E292E"/>
<path opacity="0.922" fill-rule="evenodd" clip-rule="evenodd" d="M27.5148 22.1926C29.5366 22.1226 30.9716 22.991 31.8199 24.7976C32.4877 26.995 31.8645 28.7171 29.95 29.9643C28.1783 30.75 26.5548 30.5184 25.0796 29.2696C23.6243 27.5562 23.4938 25.7471 24.6882 23.8425C25.4355 22.9418 26.3776 22.3918 27.5148 22.1926ZM27.6887 23.4951C29.5653 23.5452 30.6089 24.5003 30.8197 26.3607C30.6168 28.0105 29.6891 28.9368 28.0366 29.1393C26.3175 28.9715 25.3608 28.0308 25.1665 26.3172C25.3261 24.7548 26.1669 23.8141 27.6887 23.4951Z" fill="#1E292E"/>
<path opacity="0.923" fill-rule="evenodd" clip-rule="evenodd" d="M26.9928 31.1364C30.9918 30.9101 33.8474 32.5889 35.5595 36.1727C36.0753 37.4377 36.2203 38.7402 35.9944 40.0802C35.4501 41.0978 34.6239 41.7781 33.5157 42.1208C31.1106 42.9022 28.6464 43.1627 26.123 42.9023C24.3189 42.8131 22.6375 42.3211 21.0787 41.4262C19.8887 40.4533 19.5264 39.2232 19.9915 37.7357C20.9091 34.0261 23.2429 31.8264 26.9928 31.1364ZM27.0797 32.4389C30.4711 32.2421 32.8918 33.6604 34.3419 36.6937C34.704 37.6177 34.8489 38.5729 34.7768 39.5592C34.405 40.1323 33.8977 40.5519 33.2548 40.8183C30.125 41.8313 26.9649 41.9472 23.7748 41.1657C22.9019 40.9688 22.1337 40.5781 21.47 39.9934C21.1249 39.3322 21.0669 38.6375 21.2961 37.9094C21.8454 35.566 23.2225 33.9018 25.4273 32.9165C25.9776 32.7144 26.5285 32.5552 27.0797 32.4389Z" fill="#1E292E"/>
</svg>
