<svg width="50" height="50" viewBox="0 0 50 50" fill="none" xmlns="http://www.w3.org/2000/svg">
<g clip-path="url(#clip0_626_1238)">
<path d="M12.3984 18.0077V31.9749L25 38.9593L37.6016 31.9749V18.0077L25 11.0249L12.3984 18.0077ZM36.0391 31.0546L25 37.1733L13.9609 31.0562V18.9296L25 12.8108L36.0391 18.928V31.0546Z" fill="#1E292E"/>
<path d="M50.0001 5.80307C50.0091 4.34446 49.4674 2.93616 48.4833 1.85952C47.4992 0.782889 46.1451 0.117199 44.6915 -0.00455521C43.238 -0.126309 41.792 0.304838 40.6425 1.20275C39.493 2.10066 38.7245 3.39922 38.4907 4.83901H11.5095C11.2757 3.39922 10.5073 2.10066 9.35775 1.20275C8.20823 0.304838 6.76226 -0.126309 5.30871 -0.00455521C3.85516 0.117199 2.50106 0.782889 1.51694 1.85952C0.532813 2.93616 -0.00886803 4.34446 0.000109839 5.80307C0.00176048 7.17281 0.488785 8.49765 1.3747 9.54233C2.26062 10.587 3.4881 11.2839 4.83917 11.5093V38.4921C3.48823 38.7172 2.26078 39.4138 1.37484 40.4582C0.488898 41.5026 0.00181722 42.8273 0.000109839 44.1968C0.000109839 45.7359 0.611509 47.212 1.69981 48.3002C2.7881 49.3885 4.26415 49.9999 5.80324 49.9999C8.44855 49.9999 10.6548 48.2187 11.3532 45.7999H38.6454C39.3454 48.2187 41.5517 49.9999 44.197 49.9999C45.7361 49.9999 47.2121 49.3885 48.3004 48.3002C49.3887 47.212 50.0001 45.7359 50.0001 44.1968C50.0001 41.5515 48.2189 39.3453 45.8001 38.6468V11.3531C48.2189 10.6546 50.0001 8.44838 50.0001 5.80307ZM44.197 1.56244C45.3214 1.56327 46.3996 2.01032 47.1946 2.80541C47.9897 3.6005 48.4368 4.67864 48.4376 5.80307C48.4364 6.92737 47.9892 8.00527 47.1942 8.80027C46.3992 9.59528 45.3213 10.0425 44.197 10.0437C41.8595 10.0437 39.9564 8.14213 39.9564 5.80307C39.9564 3.46401 41.8595 1.56244 44.197 1.56244ZM1.56261 5.80307C1.56344 4.67864 2.01048 3.6005 2.80557 2.80541C3.60067 2.01032 4.67881 1.56327 5.80324 1.56244C6.92754 1.56369 8.00544 2.01086 8.80044 2.80587C9.59544 3.60087 10.0426 4.67877 10.0439 5.80307C10.0439 8.14057 8.1423 10.0437 5.80324 10.0437C3.46417 10.0437 1.56261 8.14057 1.56261 5.80307ZM5.80324 48.4374C4.67881 48.4366 3.60067 47.9896 2.80557 47.1945C2.01048 46.3994 1.56344 45.3212 1.56261 44.1968C1.56385 43.0725 2.01103 41.9946 2.80603 41.1996C3.60103 40.4046 4.67893 39.9574 5.80324 39.9562C8.14073 39.9562 10.0439 41.8578 10.0439 44.1968C10.0439 46.5359 8.14073 48.4374 5.80324 48.4374ZM48.4376 44.1968C48.4368 45.3212 47.9897 46.3994 47.1946 47.1945C46.3996 47.9896 45.3214 48.4366 44.197 48.4374C43.0727 48.4362 41.9948 47.989 41.1998 47.194C40.4048 46.399 39.9576 45.3211 39.9564 44.1968C39.9564 41.8593 41.8579 39.9562 44.197 39.9562C46.536 39.9562 48.4376 41.8593 48.4376 44.1968ZM44.2376 38.3984C44.2235 38.3984 44.211 38.3937 44.197 38.3937C42.6579 38.3937 41.1819 39.0051 40.0936 40.0934C39.0053 41.1817 38.3939 42.6577 38.3939 44.1968C38.3939 44.2109 38.3985 44.2234 38.3985 44.2374H11.6017C11.6017 44.2234 11.6064 44.2109 11.6064 44.1968C11.6064 41.1968 9.32198 38.7578 6.40167 38.4546V11.5453C7.71951 11.4094 8.95034 10.8238 9.88713 9.88696C10.8239 8.95017 11.4095 7.71934 11.5454 6.40151H38.4548C38.7579 9.32182 41.197 11.6062 44.197 11.6062C44.211 11.6062 44.2235 11.6015 44.2376 11.6015V38.3984Z" fill="#1E292E"/>
</g>
<defs>
<clipPath id="clip0_626_1238">
<rect width="50" height="50" fill="white"/>
</clipPath>
</defs>
</svg>
