<svg width="50" height="50" viewBox="0 0 50 50" fill="none" xmlns="http://www.w3.org/2000/svg">
<path d="M48.2187 11.2058L41.7408 5.43377C41.2334 4.97274 40.4342 4.63965 39.6673 4.63965H10.3437C10.057 4.63965 9.77756 4.69112 9.5055 4.76465C9.45918 4.76465 9.40182 4.79406 9.38785 4.79406C8.93638 4.96024 8.65624 5.08818 8.26285 5.42641C8.0305 5.63377 1.92388 11.0735 1.70403 11.2941C0.556971 12.3646 0.439324 14.1492 1.34374 15.3823C23.8011 45.8647 22.5761 44.333 23.1231 44.7205C24.2423 45.586 25.807 45.5558 26.8731 44.7352C27.4614 44.2941 25.8981 46.2882 48.6526 15.3823C49.6658 14.0301 49.3254 12.1867 48.2187 11.2058ZM40.5276 6.35288C40.7364 6.48524 47.2879 12.3441 47.3879 12.4632H34.704L40.5276 6.35288ZM38.7261 6.11024L32.932 12.1911L26.7849 6.11024H38.7261ZM31.1158 12.4632H18.8805L24.9981 6.41171L31.1158 12.4632ZM23.2114 6.11024L17.0643 12.1911L11.2702 6.11024H23.2114ZM2.76285 12.3088C2.90256 12.1838 9.31065 6.44994 9.47609 6.36024L15.2923 12.4632H2.61579C2.65991 12.4117 2.70403 12.3529 2.76285 12.3088ZM2.52756 14.5073C2.40256 14.3382 2.31432 14.147 2.26285 13.9485H16.5055L22.3952 41.4779L2.52756 14.5073ZM25.6305 43.7132C25.2452 43.9441 24.7334 43.9338 24.3805 43.7132L18.0055 13.9485H31.9908L25.6305 43.7132ZM47.4761 14.5073H47.4687L27.6084 41.4779L33.4981 13.9485H47.7408C47.6893 14.147 47.6011 14.3382 47.4761 14.5073Z" fill="#1E292E"/>
</svg>
