<svg width="16" height="16" viewBox="0 0 16 16" fill="none" xmlns="http://www.w3.org/2000/svg">
<path d="M13.333 1.33398H5.33301C4.59967 1.33398 3.99967 1.93398 3.99967 2.66732V4.00065H2.66634C1.93301 4.00065 1.33301 4.60065 1.33301 5.33398V14.6673L3.99967 12.0007H10.6663C11.3997 12.0007 11.9997 11.4007 11.9997 10.6673V9.33398L14.6663 12.0007V2.66732C14.6663 1.93398 14.0663 1.33398 13.333 1.33398ZM5.33301 8.66732C4.96534 8.66732 4.66634 8.36832 4.66634 8.00065V2.66732C4.66634 2.29965 4.96534 2.00065 5.33301 2.00065H13.333C13.7007 2.00065 13.9997 2.29965 13.9997 2.66732V10.3913L12.2757 8.66732H5.33301ZM11.333 10.6673C11.333 11.035 11.034 11.334 10.6663 11.334H3.72367L1.99967 13.058V5.33398C1.99967 4.96632 2.29867 4.66732 2.66634 4.66732H3.99967V8.00065C3.99967 8.73398 4.59967 9.33398 5.33301 9.33398H11.333V10.6673Z" fill="#273339"/>
</svg>
