<svg width="16" height="16" viewBox="0 0 16 16" fill="none" xmlns="http://www.w3.org/2000/svg">
<path d="M8.8125 12.0625C8.8125 12.4077 9.09232 12.6875 9.4375 12.6875C9.78268 12.6875 10.0625 12.4077 10.0625 12.0625C10.0625 11.7173 9.78268 11.4375 9.4375 11.4375C9.09232 11.4375 8.8125 11.7173 8.8125 12.0625Z" fill="white"/>
<path d="M14.75 13.5V12.6875H15.375C15.7202 12.6875 16 12.4077 16 12.0625C16 11.7173 15.7202 11.4375 15.375 11.4375H14.75V8.59375H15.375C15.7202 8.59375 16 8.31394 16 7.96875C16 7.62356 15.7202 7.34375 15.375 7.34375H14.75V4.53125H15.375C15.7202 4.53125 16 4.25144 16 3.90625C16 3.56106 15.7202 3.28125 15.375 3.28125H14.75V2.5C14.75 1.1215 13.6285 0 12.25 0L2.5 0C1.1215 0 0 1.1215 0 2.5V7.28125C0 7.62644 0.279813 7.90625 0.625 7.90625C0.970187 7.90625 1.25 7.62644 1.25 7.28125V2.5C1.25 1.81075 1.81075 1.25 2.5 1.25L12.25 1.25C12.9392 1.25 13.5 1.81075 13.5 2.5V3.28125H12.875C12.5298 3.28125 12.25 3.56106 12.25 3.90625C12.25 4.25144 12.5298 4.53125 12.875 4.53125H13.5V7.34375H12.875C12.5298 7.34375 12.25 7.62356 12.25 7.96875C12.25 8.31394 12.5298 8.59375 12.875 8.59375H13.5V11.4375H12.875C12.5298 11.4375 12.25 11.7173 12.25 12.0625C12.25 12.4077 12.5298 12.6875 12.875 12.6875H13.5V13.5C13.5 14.1892 12.9392 14.75 12.25 14.75H8.6875C8.34231 14.75 8.0625 15.0298 8.0625 15.375C8.0625 15.7202 8.34231 16 8.6875 16H12.25C13.6285 16 14.75 14.8785 14.75 13.5Z" fill="white"/>
<path d="M7.5625 12.2188C7.5625 10.1337 5.86625 8.4375 3.78125 8.4375C1.69625 8.4375 0 10.1337 0 12.2188C0 14.3038 1.69625 16 3.78125 16C5.86625 16 7.5625 14.3038 7.5625 12.2188ZM1.25 12.2188C1.25 10.823 2.3855 9.6875 3.78125 9.6875C5.177 9.6875 6.3125 10.823 6.3125 12.2188C6.3125 13.6145 5.177 14.75 3.78125 14.75C2.3855 14.75 1.25 13.6145 1.25 12.2188Z" fill="white"/>
<path d="M4.40625 13.125V12.8438H5.0625C5.40769 12.8438 5.6875 12.5639 5.6875 12.2188C5.6875 11.8736 5.40769 11.5938 5.0625 11.5938H3.78125C3.43606 11.5938 3.15625 11.8736 3.15625 12.2188V13.125C3.15625 13.4702 3.43606 13.75 3.78125 13.75C4.12644 13.75 4.40625 13.4702 4.40625 13.125Z" fill="white"/>
<path d="M8.8125 9.34375C8.8125 9.68893 9.09232 9.96875 9.4375 9.96875C9.78268 9.96875 10.0625 9.68893 10.0625 9.34375C10.0625 8.99857 9.78268 8.71875 9.4375 8.71875C9.09232 8.71875 8.8125 8.99857 8.8125 9.34375Z" fill="white"/>
<path d="M6.09375 6.625C6.09375 6.97018 6.37357 7.25 6.71875 7.25C7.06393 7.25 7.34375 6.97018 7.34375 6.625C7.34375 6.27982 7.06393 6 6.71875 6C6.37357 6 6.09375 6.27982 6.09375 6.625Z" fill="white"/>
<path d="M8.8125 3.90625C8.8125 4.25143 9.09232 4.53125 9.4375 4.53125C9.78268 4.53125 10.0625 4.25143 10.0625 3.90625C10.0625 3.56107 9.78268 3.28125 9.4375 3.28125C9.09232 3.28125 8.8125 3.56107 8.8125 3.90625Z" fill="white"/>
<path d="M6.09375 3.90625C6.09375 4.25143 6.37357 4.53125 6.71875 4.53125C7.06393 4.53125 7.34375 4.25143 7.34375 3.90625C7.34375 3.56107 7.06393 3.28125 6.71875 3.28125C6.37357 3.28125 6.09375 3.56107 6.09375 3.90625Z" fill="white"/>
<path d="M3.375 3.90625C3.375 4.25143 3.65482 4.53125 4 4.53125C4.34518 4.53125 4.625 4.25143 4.625 3.90625C4.625 3.56107 4.34518 3.28125 4 3.28125C3.65482 3.28125 3.375 3.56107 3.375 3.90625Z" fill="white"/>
<path d="M3.375 6.625C3.375 6.97018 3.65482 7.25 4 7.25C4.34518 7.25 4.625 6.97018 4.625 6.625C4.625 6.27982 4.34518 6 4 6C3.65482 6 3.375 6.27982 3.375 6.625Z" fill="white"/>
<path d="M8.8125 6.625C8.8125 6.97018 9.09232 7.25 9.4375 7.25C9.78268 7.25 10.0625 6.97018 10.0625 6.625C10.0625 6.27982 9.78268 6 9.4375 6C9.09232 6 8.8125 6.27982 8.8125 6.625Z" fill="white"/>
</svg>
