<svg width="20" height="20" viewBox="0 0 20 20" fill="none" xmlns="http://www.w3.org/2000/svg">
<g clip-path="url(#clip0_608_2350)">
<path d="M8.05669 18.75H8.05507C7.46835 18.7495 6.9166 18.5207 6.5019 18.1052L0.660372 12.2553C-0.194042 11.3994 -0.194042 10.0065 0.660372 9.15058L8.53481 1.26102C9.34633 0.44792 10.4261 0 11.5751 0H16.571C17.7825 0 18.7682 0.985546 18.7682 2.19726V7.17785C18.7682 8.32602 18.3208 9.40532 17.5085 10.2167L9.60954 18.1074C9.19458 18.5218 8.64309 18.75 8.05669 18.75ZM11.5751 1.46484C10.8179 1.46484 10.1064 1.75998 9.57166 2.29579L1.6971 10.1853C1.41225 10.4708 1.41225 10.9349 1.6971 11.2203L7.5386 17.0702C7.67674 17.2086 7.86054 17.285 8.05622 17.2851H8.0568C8.15293 17.2854 8.24815 17.2666 8.33698 17.2299C8.4258 17.1931 8.50646 17.1391 8.5743 17.071L16.4732 9.18046C17.0086 8.6458 17.3034 7.93447 17.3034 7.17788V2.19726C17.3034 1.79341 16.9748 1.46484 16.571 1.46484H11.5751ZM13.4581 7.43408C12.2465 7.43408 11.2608 6.44853 11.2608 5.23681C11.2608 4.0251 12.2465 3.03955 13.4581 3.03955C14.6697 3.03955 15.6553 4.0251 15.6553 5.23681C15.6553 6.44853 14.6697 7.43408 13.4581 7.43408ZM13.4581 4.50439C13.0542 4.50439 12.7256 4.83296 12.7256 5.23681C12.7256 5.64067 13.0542 5.96924 13.4581 5.96924C13.8621 5.96924 14.1905 5.64067 14.1905 5.23681C14.1905 4.83296 13.8621 4.50439 13.4581 4.50439Z" fill="#273339"/>
</g>
<defs>
<clipPath id="clip0_608_2350">
<rect width="20" height="20" fill="white"/>
</clipPath>
</defs>
</svg>
