<svg width="31" height="30" viewBox="0 0 31 30" fill="none" xmlns="http://www.w3.org/2000/svg">
<path d="M23.6937 13.1662C23.2524 13.5952 22.9145 14.1129 22.7039 14.6824C22.4934 15.252 22.4155 15.8594 22.4757 16.4614L22.4548 16.4412C22.5167 17.1498 22.4177 17.8628 22.1649 18.5308C21.9122 19.1986 21.5116 19.8051 20.9912 20.308C20.4708 20.8107 19.843 21.1979 19.1518 21.442C18.4606 21.6862 17.7225 21.7819 16.9891 21.722L17.0101 21.7423C16.1329 21.6634 15.2518 21.8478 14.4869 22.2705C13.7221 22.6931 13.1108 23.3334 12.7365 24.104C12.3621 24.8747 12.2428 25.738 12.3948 26.5766C12.547 27.4151 12.9631 28.1878 13.5863 28.7895C14.2096 29.3912 15.0098 29.7925 15.8777 29.9386C16.7458 30.0849 17.6392 29.9688 18.4365 29.6064C19.2337 29.2439 19.8958 28.6528 20.3326 27.9135C20.7693 27.1741 20.9595 26.3227 20.877 25.4751L20.8991 25.4953C20.8372 24.7868 20.9361 24.0736 21.1888 23.4057C21.4416 22.7379 21.8423 22.1314 22.3627 21.6285C22.8831 21.1257 23.5109 20.7386 24.202 20.4945C24.8933 20.2503 25.6313 20.1546 26.3648 20.2145L26.3426 20.1942C27.0592 20.2564 27.7805 20.1429 28.4397 19.8641C29.0987 19.5854 29.6744 19.1503 30.1132 18.5994C30.5519 18.0485 30.8397 17.3993 30.9496 16.7124C31.0597 16.0253 30.9884 15.3227 30.7425 14.6692C30.4966 14.0159 30.0839 13.4332 29.5428 12.975C29.0017 12.5167 28.3497 12.1979 27.6471 12.0481C26.9445 11.8982 26.2141 11.9221 25.5236 12.1175C24.8331 12.313 24.205 12.6737 23.6972 13.1662H23.6937Z" fill="#1E292E"/>
<path d="M15.104 19.0894L15.0819 19.0692C15.7052 19.1298 16.3347 19.0559 16.9249 18.8527C17.515 18.6495 18.0511 18.3223 18.4942 17.8944C18.9373 17.4666 19.2766 16.9488 19.4872 16.3788C19.698 15.8087 19.775 15.2007 19.7127 14.5983L19.7348 14.6186C19.6728 13.9099 19.7718 13.1969 20.0245 12.529C20.2773 11.8611 20.6779 11.2546 21.1983 10.7518C21.7188 10.249 22.3465 9.86187 23.0377 9.61774C23.729 9.37345 24.467 9.27791 25.2004 9.33772L25.1783 9.31747C26.0556 9.39712 26.937 9.21325 27.7022 8.79107C28.4675 8.3689 29.0793 7.72891 29.4542 6.95841C29.8292 6.18793 29.949 5.32444 29.7974 4.48573C29.6458 3.64701 29.2301 2.87392 28.6069 2.27188C27.9839 1.66984 27.1837 1.26817 26.3156 1.12166C25.4476 0.975153 24.5539 1.09093 23.7565 1.45321C22.959 1.81548 22.2967 2.40662 21.8597 3.146C21.4227 3.88536 21.2324 4.73697 21.3149 5.58465L21.2939 5.56327C21.356 6.27191 21.2572 6.98511 21.0045 7.65306C20.7519 8.32101 20.3512 8.92761 19.8308 9.43054C19.3104 9.93331 18.6825 10.3204 17.9912 10.5646C17.2998 10.8087 16.5617 10.9041 15.8283 10.8441L15.8492 10.8655C15.2259 10.8049 14.5964 10.8788 14.0062 11.082C13.4161 11.285 12.8801 11.6124 12.4369 12.0403C11.9937 12.4681 11.6545 12.9858 11.4438 13.5559C11.2331 14.1259 11.1562 14.734 11.2185 15.3363L11.1975 15.3161C11.2592 16.0246 11.1601 16.7377 10.9074 17.4055C10.6544 18.0732 10.2539 18.6797 9.73354 19.1825C9.21313 19.6852 8.58548 20.0722 7.89435 20.3166C7.20321 20.5608 6.46524 20.6566 5.7319 20.5969L5.75286 20.6172C4.87552 20.5375 3.99411 20.7214 3.22887 21.1436C2.46363 21.5658 1.85181 22.2057 1.47687 22.9763C1.10191 23.7468 0.982072 24.6102 1.13371 25.4489C1.28535 26.2876 1.70108 27.0608 2.32418 27.6628C2.94729 28.2649 3.74743 28.6665 4.61549 28.813C5.48355 28.9595 6.37725 28.8437 7.1747 28.4814C7.97214 28.1192 8.63452 27.5281 9.07147 26.7887C9.50846 26.0493 9.69872 25.1977 9.61628 24.35L9.63841 24.3703C9.57646 23.6616 9.67543 22.9486 9.92822 22.2807C10.1809 21.6128 10.5816 21.0063 11.1019 20.5035C11.6224 20.0007 12.2501 19.6136 12.9413 19.3694C13.6326 19.1252 14.3706 19.0296 15.104 19.0894Z" fill="#1E292E"/>
<path d="M7.30057 16.8314C7.7419 16.4026 8.07978 15.8848 8.29011 15.3152C8.50045 14.7456 8.57804 14.1381 8.51735 13.5362L8.53946 13.5565C8.47752 12.8477 8.57645 12.1343 8.82936 11.4663C9.08228 10.7983 9.48309 10.1917 10.0038 9.68877C10.5245 9.18591 11.1525 8.79891 11.844 8.55484C12.5355 8.31075 13.2739 8.21546 14.0074 8.27563L13.9853 8.25538C14.8623 8.33477 15.7434 8.15084 16.5083 7.72869C17.2732 7.30655 17.8846 6.66671 18.2594 5.89647C18.6341 5.12621 18.7538 4.26304 18.6022 3.42464C18.4506 2.58623 18.0349 1.81343 17.4121 1.21162C16.7893 0.609796 15.9893 0.208253 15.1216 0.061753C14.2539 -0.0847586 13.3605 0.0309161 12.5634 0.392971C11.7661 0.755025 11.1039 1.34585 10.667 2.08488C10.23 2.82391 10.0397 3.67517 10.1219 4.52256L10.1009 4.50231C10.1629 5.2109 10.0639 5.92402 9.8111 6.59188C9.55831 7.25973 9.15779 7.86624 8.63735 8.36908C8.11693 8.87192 7.48919 9.25897 6.79797 9.50314C6.10674 9.74738 5.36868 9.84301 4.6353 9.78316L4.65625 9.80341C3.93966 9.74131 3.21843 9.85505 2.55941 10.1339C1.90039 10.4128 1.32489 10.848 0.886258 11.399C0.447623 11.95 0.160043 12.5991 0.0501488 13.286C-0.0597342 13.9731 0.0116309 14.6758 0.25763 15.329C0.50363 15.9823 0.916323 16.5649 1.45745 17.023C1.99857 17.4812 2.65063 17.8 3.35319 17.9498C4.05575 18.0995 4.78608 18.0756 5.47653 17.8802C6.16696 17.6846 6.79515 17.324 7.30289 16.8314H7.30057Z" fill="#1E292E"/>
</svg>
